<svg width="83" height="24" viewBox="0 0 83 24" fill="none" xmlns="http://www.w3.org/2000/svg">
<g clip-path="url(#clip0_12_3519)">
<path d="M2.9369 22.9371C2.01139 22.2285 1.29205 21.2485 0.774315 19.9878C0.256578 18.727 0 17.3052 0 15.7132C0 14.1212 0.320722 12.5936 0.957585 11.2546C1.59445 9.91567 2.5108 8.85278 3.69747 8.05677C4.88414 7.26076 6.27241 6.86505 7.8577 6.86505C8.62743 6.86505 9.25055 6.95708 9.72247 7.14573C10.1944 7.33438 10.6022 7.54143 10.9458 7.7761C11.2848 8.00616 11.5002 8.12579 11.5918 8.12579C11.7018 8.12579 11.7751 8.01536 11.8072 7.7945C11.8392 7.57364 11.8576 7.21935 11.8576 6.73162V5.87119C11.8576 5.34205 11.798 4.92794 11.6743 4.62886C11.5552 4.32978 11.3261 4.12732 10.9962 4.01689C10.8862 3.97088 10.6938 3.91107 10.4189 3.83285C10.144 3.75462 9.93323 3.6488 9.79119 3.51996C9.64916 3.38653 9.57585 3.21168 9.57585 2.99082C9.57585 2.68254 9.70872 2.42947 9.96988 2.22702C10.2356 2.02916 10.6388 1.81751 11.1932 1.59665C13.5666 0.6626 15.2939 0.197876 16.3706 0.197876C16.9433 0.197876 17.3511 0.294502 17.5939 0.478551C17.8367 0.667201 17.9559 1.01689 17.9559 1.52303V18.1289C17.9559 18.658 18.0154 19.0859 18.1391 19.4034C18.2583 19.7255 18.4873 19.9187 18.8172 19.9832C19.28 20.0706 19.6328 20.181 19.8756 20.3144C20.1184 20.4479 20.2376 20.6779 20.2376 21.0092C20.2376 21.3635 20.1047 21.635 19.8435 21.8236C19.5824 22.0123 19.17 22.2055 18.6202 22.4034C17.4748 22.8221 16.4805 23.1626 15.6329 23.4157C14.7853 23.6687 14.0522 23.7976 13.4383 23.7976C12.8655 23.7976 12.4578 23.7009 12.2149 23.5169C11.9721 23.3282 11.853 22.9832 11.853 22.4724V22.2746C11.853 21.658 11.8392 21.2255 11.8209 20.9816C11.798 20.7378 11.743 20.6181 11.656 20.6181C11.6101 20.6181 11.3765 20.9264 10.9458 21.5476C10.5151 22.1687 9.90574 22.7301 9.11309 23.2362C8.32045 23.7424 7.33996 24 6.17619 24C4.9437 24 3.86699 23.6457 2.94148 22.9417L2.9369 22.9371ZM11.1382 19.1089C11.6101 18.5016 11.8484 17.6687 11.8484 16.6059V15.612C11.8484 13.6013 11.5827 12.0644 11.0558 11.0062C10.5289 9.94327 9.79119 9.41413 8.84277 9.41413C8.13718 9.41413 7.54614 9.72702 7.06047 10.3574C6.57481 10.9878 6.33656 11.931 6.33656 13.1917C6.33656 15.2485 6.61146 16.9003 7.16127 18.1473C7.71108 19.3942 8.47165 20.02 9.4384 20.02C10.0982 20.02 10.6663 19.7163 11.1382 19.1089Z" fill="#004537"/>
<path d="M22.281 10.3436C22.1069 10.1687 22.0153 9.96626 22.0153 9.7454C22.0153 9.41411 22.2123 9.17025 22.6109 9.0184C23.1836 8.79755 23.6555 8.49387 24.0312 8.10736C24.4069 7.72086 24.5902 7.32975 24.5902 6.92945C24.5902 6.55215 24.3382 6.29908 23.8296 6.16564C22.4414 5.78834 21.7495 4.84049 21.7495 3.31288C21.7495 2.38344 22.084 1.60123 22.7575 0.961656C23.4264 0.322086 24.2832 0 25.3141 0C26.345 0 27.243 0.358896 27.8707 1.07669C28.4984 1.79448 28.81 2.81595 28.81 4.1411C28.81 5.46626 28.4847 6.61656 27.8341 7.58742C27.1835 8.55828 26.4 9.30828 25.4745 9.82362C24.549 10.3436 23.6922 10.6012 22.8995 10.6012C22.6567 10.6012 22.4459 10.5138 22.2718 10.3344L22.281 10.3436Z" fill="#004537"/>
<path d="M31.9485 22.6564C31.0688 21.7592 30.6289 20.6181 30.6289 19.2239C30.6289 17.6319 31.3208 16.3435 32.709 15.3635C34.0973 14.3788 35.8979 13.7991 38.1201 13.6242C38.8257 13.5598 39.348 13.4816 39.687 13.3942C40.0261 13.3067 40.2597 13.1687 40.3789 12.98C40.498 12.7914 40.5392 12.5199 40.4934 12.1702L40.4293 11.6089C40.3422 10.9003 40.1589 10.3711 39.884 10.0169C39.6091 9.66256 39.151 9.48771 38.5141 9.48771C38.0055 9.48771 37.5519 9.64415 37.1442 9.95243C36.7364 10.2607 36.4569 10.7254 36.3011 11.3466C36.127 12.0322 35.8292 12.5383 35.4077 12.8696C34.9907 13.2009 34.4043 13.3665 33.6574 13.3665C33.1947 13.3665 32.7777 13.2009 32.402 12.8696C32.0263 12.5383 31.8431 12.0966 31.8431 11.5445C31.8431 10.638 32.2096 9.8282 32.9473 9.11041C33.6849 8.39262 34.6746 7.83587 35.9162 7.43556C37.1579 7.03526 38.5095 6.8374 39.9573 6.8374C41.5426 6.8374 42.7889 7.06286 43.7052 7.51838C44.617 7.97391 45.2859 8.61808 45.7029 9.4555C46.1198 10.2929 46.4176 11.3558 46.5963 12.6395L47.3569 18.3405C47.4439 18.9156 47.5585 19.2975 47.7051 19.4862C47.8471 19.6748 48.0533 19.7668 48.3144 19.7668C48.5573 19.7668 48.7818 19.7162 48.9925 19.6196C49.2033 19.5184 49.3591 19.4724 49.469 19.4724C49.973 19.4724 50.2296 19.7807 50.2296 20.4018C50.2296 20.931 50.0464 21.4693 49.6844 22.0076C49.3224 22.5506 48.8276 22.9969 48.1999 23.3512C47.5722 23.7055 46.8849 23.8803 46.1381 23.8803C45.1256 23.8803 44.3375 23.6871 43.7785 23.3006C43.2195 22.9141 42.7934 22.3573 42.5094 21.6257C42.4223 21.3819 42.3124 21.2622 42.1795 21.2622C42.1153 21.2622 41.9 21.5107 41.5335 22.0076C41.1715 22.5046 40.5667 22.9647 39.7191 23.3834C38.8715 23.8021 37.7123 24.0138 36.237 24.0138C34.2576 24.0138 32.8281 23.5675 31.9439 22.6702L31.9485 22.6564ZM40.6309 19.9049C41.0478 19.3849 41.2586 18.6856 41.2586 17.8021C41.2586 17.6687 41.2357 17.4018 41.1944 17.0061L41.1623 16.7761C41.0982 16.2883 40.9378 15.9708 40.6858 15.8144C40.4338 15.6626 39.9894 15.5843 39.348 15.5843C37.6527 15.5843 36.8051 16.4586 36.8051 18.2024C36.8051 19.0215 37.0067 19.638 37.4145 20.0567C37.8223 20.4754 38.3675 20.6871 39.0502 20.6871C39.687 20.6871 40.2139 20.4294 40.6354 19.9095L40.6309 19.9049Z" fill="#004537"/>
<path d="M51.9341 23.5169C51.3523 23.3052 51.059 22.9601 51.059 22.4724C51.059 21.9847 51.3019 21.6442 51.7829 21.3773C52.4198 21.046 52.8184 20.6135 52.9696 20.0844C53.1208 19.5552 53.1987 18.7362 53.1987 17.6319V12.6948C53.1987 12.1427 53.1391 11.7101 53.0154 11.4019C52.8963 11.0936 52.6672 10.9049 52.3373 10.8405C51.8746 10.7301 51.5218 10.6013 51.279 10.4586C51.0361 10.316 50.917 10.0997 50.917 9.80984C50.917 9.45555 51.0453 9.18408 51.2973 9.00003C51.5493 8.81138 51.9616 8.60892 52.5344 8.38806C54.8665 7.48162 56.5938 7.0307 57.7163 7.0307C58.289 7.0307 58.6968 7.12733 58.9396 7.31138C59.1825 7.50003 59.3016 7.84972 59.3016 8.35585V9.45095C59.3016 9.93868 59.3566 10.1779 59.4665 10.1779C59.5123 10.1779 59.7139 9.86966 60.0759 9.24849C60.4379 8.63193 60.9464 8.07058 61.5925 7.57365C62.2431 7.07671 63.0632 6.82825 64.0529 6.82825C65.1112 6.82825 65.936 7.17794 66.527 7.87273C67.1226 8.56751 67.4204 9.57978 67.4204 10.9049C67.4204 11.7654 67.141 12.5568 66.5774 13.2746C66.0184 13.9924 65.2945 14.3513 64.4148 14.3513C63.7963 14.3513 63.274 14.181 62.8479 13.8359C62.4172 13.4954 62.2018 12.9801 62.2018 12.2945C62.2018 11.9632 62.1514 11.6917 62.0552 11.4801C61.9544 11.2684 61.7299 11.1672 61.3771 11.1672C60.8044 11.1672 60.3142 11.5859 59.9064 12.4279C59.4986 13.27 59.297 14.2638 59.297 15.4095V17.5951C59.297 18.7224 59.3749 19.5322 59.5261 20.0292C59.6773 20.5261 60.0667 20.9632 60.6807 21.3405C60.9464 21.497 61.1435 21.6534 61.2763 21.819C61.4092 21.9847 61.4733 22.2009 61.4733 22.4632C61.4733 22.7945 61.3725 23.0568 61.1755 23.2408C60.9785 23.4295 60.5753 23.5721 59.9705 23.6733C59.3657 23.7746 58.4815 23.8206 57.3131 23.8206H55.2651C53.6156 23.8206 52.4977 23.7148 51.9158 23.5077L51.9341 23.5169Z" fill="#004537"/>
<path d="M71.9885 22.6242C70.9989 21.727 70.504 20.2868 70.504 18.2991V10.6748C70.504 10.1227 70.252 9.8466 69.7435 9.8466H69.1845C68.8546 9.8466 68.6072 9.73157 68.4422 9.4969C68.2773 9.26684 68.1948 9.00457 68.1948 8.7193C68.1948 8.19016 68.4377 7.6242 68.9187 7.03065L69.5464 6.23463C70.362 5.19476 71.2738 4.30212 72.2863 3.55212C73.4547 2.71009 74.5543 2.29138 75.5852 2.29138C75.9838 2.29138 76.245 2.40181 76.3778 2.62267C76.5107 2.84353 76.5748 3.20703 76.5748 3.71776V5.50764C76.5748 6.05979 76.5932 6.45089 76.6252 6.68555C76.6573 6.91561 76.7169 7.06746 76.8085 7.13187C76.8956 7.19629 77.0605 7.2331 77.3033 7.2331H80.9C81.2757 7.2331 81.5231 7.28371 81.6422 7.38034C81.7614 7.48157 81.8255 7.74844 81.8255 8.19015C81.8255 8.7193 81.6881 9.12881 81.4132 9.41868C81.1383 9.70396 80.7809 9.8512 80.341 9.8512H77.5003C76.8864 9.8512 76.5748 10.1503 76.5748 10.7484V17.3788C76.5748 18.1748 76.7489 18.7914 77.1017 19.2331C77.4545 19.6748 77.9494 19.8957 78.5862 19.8957C78.9619 19.8957 79.3697 19.8175 79.8096 19.6656C80.2494 19.5092 80.6434 19.2469 80.9962 18.8696C81.1932 18.6487 81.4269 18.5383 81.6881 18.5383C81.9309 18.5383 82.1233 18.6349 82.2654 18.819C82.4074 19.0076 82.4578 19.2331 82.412 19.5C82.1279 20.9586 81.459 22.0675 80.4143 22.8313C79.3697 23.5951 77.9768 23.977 76.2404 23.977C74.3939 23.977 72.9736 23.5306 71.9839 22.6334L71.9885 22.6242Z" fill="#004537"/>
</g>
<defs>
<clipPath id="clip0_12_3519">
<rect width="82.4348" height="24" fill="white"/>
</clipPath>
</defs>
</svg>
