<svg width="24" height="24" viewBox="0 0 24 24" fill="none" xmlns="http://www.w3.org/2000/svg">
<g clip-path="url(#clip0_7_123710)">
<path d="M16.2923 16.6457L15.8211 16.1745L15.2978 16.5869C14.3272 17.3519 13.1877 17.8736 11.9744 18.1086C10.7611 18.3436 9.50928 18.285 8.32325 17.9378C7.13722 17.5906 6.05142 16.9648 5.15644 16.1126C4.26146 15.2604 3.58325 14.2065 3.1784 13.0389C2.77355 11.8713 2.6538 10.6238 2.82913 9.40045C3.00446 8.17714 3.4698 7.01349 4.18632 6.0066C4.90283 4.9997 5.84975 4.17876 6.94807 3.61225C8.04639 3.04574 9.26426 2.75011 10.5001 2.75C11.9552 2.7499 13.381 3.15948 14.6142 3.93186C15.8475 4.70424 16.8383 5.80821 17.4734 7.11744C18.1086 8.42667 18.3622 9.88825 18.2055 11.3349C18.0487 12.7816 17.4878 14.1549 16.587 15.2977L16.1744 15.8211L16.6457 16.2923L20.2916 19.9382C20.3352 19.985 20.3593 20.0468 20.3587 20.1109C20.3581 20.1764 20.3318 20.2391 20.2855 20.2855C20.2391 20.3318 20.1764 20.3581 20.1109 20.3587C20.0468 20.3593 19.985 20.3352 19.9382 20.2916L16.2923 16.6457ZM5.37349 5.37348C4.01385 6.73311 3.25001 8.57718 3.25001 10.5C3.25001 12.4228 4.01385 14.2669 5.37349 15.6265C6.73312 16.9862 8.57719 17.75 10.5 17.75C12.4228 17.75 14.2669 16.9862 15.6265 15.6265C16.9862 14.2669 17.75 12.4228 17.75 10.5C17.75 8.57718 16.9862 6.73311 15.6265 5.37348C14.2669 4.01384 12.4228 3.25 10.5 3.25C8.57719 3.25 6.73312 4.01384 5.37349 5.37348Z" fill="black" stroke="black" stroke-width="1.5"/>
</g>
<defs>
<clipPath id="clip0_7_123710">
<rect width="24" height="24" fill="white"/>
</clipPath>
</defs>
</svg>
