<svg width="17" height="18" viewBox="0 0 17 18" fill="none" xmlns="http://www.w3.org/2000/svg">
<path d="M13.525 17.28C12.545 18.23 11.475 18.08 10.445 17.63C9.35502 17.17 8.35502 17.15 7.20502 17.63C5.76502 18.25 5.00502 18.07 4.14502 17.28C-0.734982 12.25 -0.0149822 4.59 5.52502 4.31C6.87502 4.38 7.81502 5.05 8.60502 5.11C9.78502 4.87 10.915 4.18 12.175 4.27C13.685 4.39 14.825 4.99 15.575 6.07C12.455 7.94 13.195 12.05 16.055 13.2C15.485 14.7 14.745 16.19 13.515 17.29L13.525 17.28ZM8.50502 4.25C8.35502 2.02 10.165 0.18 12.245 0C12.535 2.58 9.90502 4.5 8.50502 4.25Z" fill="white"/>
</svg>
