<svg width="49" height="49" viewBox="0 0 49 49" fill="none" xmlns="http://www.w3.org/2000/svg">
<path d="M0 10C0 4.47715 4.47715 0 10 0H39C44.5228 0 49 4.47715 49 10V39C49 44.5228 44.5228 49 39 49H10C4.47715 49 0 44.5228 0 39V10Z" fill="#EFEFEF"/>
<path d="M24.5 12.25C22.1437 12.25 19.8838 13.1627 18.2176 14.7872C16.5514 16.4117 15.6154 18.6151 15.6154 20.9125V28H14V29.575H35V28H33.3846V20.9125C33.3846 18.6151 32.4486 16.4117 30.7824 14.7872C29.1162 13.1627 26.8563 12.25 24.5 12.25ZM20.4615 31.9375V31.15H28.5385V31.9375C28.5385 32.9818 28.113 33.9833 27.3556 34.7217C26.5983 35.4602 25.5711 35.875 24.5 35.875C23.4289 35.875 22.4017 35.4602 21.6444 34.7217C20.887 33.9833 20.4615 32.9818 20.4615 31.9375Z" fill="#B7B7B7"/>
</svg>
