<svg width="10" height="10" viewBox="0 0 10 10" fill="none" xmlns="http://www.w3.org/2000/svg">
<g clip-path="url(#clip0_12_3596)">
<path d="M10 3.23369C10 1.72649 8.8262 0.5 7.38376 0.5C6.32569 0.5 5.41228 1.16075 4.99897 2.10653C4.58772 1.16075 3.67431 0.5 2.61624 0.5C1.1738 0.5 0 1.72649 0 3.23369C0 3.5511 0.0516636 3.85773 0.148791 4.14059C0.258318 4.46449 0.423641 4.76032 0.634429 5.01511C0.72329 5.12524 0.822484 5.22457 0.925811 5.31958L4.91631 9.46113C4.9411 9.48704 4.9721 9.5 5.00517 9.5C5.03823 9.5 5.06923 9.48704 5.09403 9.46113L9.23331 5.16411C9.50196 4.8834 9.71275 4.54223 9.84294 4.16003C9.94214 3.87068 9.99793 3.55758 9.99793 3.23369H10Z" fill="#C9C9C9"/>
</g>
<defs>
<clipPath id="clip0_12_3596">
<rect width="10" height="9" fill="white" transform="translate(0 0.5)"/>
</clipPath>
</defs>
</svg>
