<svg width="15" height="15" viewBox="0 0 15 15" fill="none" xmlns="http://www.w3.org/2000/svg">
<path d="M9.6875 7.5C9.6875 8.70812 8.70812 9.6875 7.5 9.6875C6.29188 9.6875 5.3125 8.70812 5.3125 7.5C5.3125 6.29188 6.29188 5.3125 7.5 5.3125C8.70812 5.3125 9.6875 6.29188 9.6875 7.5Z" fill="#004537"/>
<path fill-rule="evenodd" clip-rule="evenodd" d="M7.5 12.5C11.25 12.5 14.0625 9.0625 15 7.34375C13.9062 5.72917 11.25 2.5 7.5 2.5C3.75 2.5 1.09375 5.72917 0 7.34375C0.9375 9.0625 3.75 12.5 7.5 12.5ZM10.9375 7.5C10.9375 9.39848 9.39848 10.9375 7.5 10.9375C5.60152 10.9375 4.0625 9.39848 4.0625 7.5C4.0625 5.60152 5.60152 4.0625 7.5 4.0625C9.39848 4.0625 10.9375 5.60152 10.9375 7.5Z" fill="#004537"/>
</svg>
