<svg width="11" height="11" viewBox="0 0 11 11" fill="none" xmlns="http://www.w3.org/2000/svg">
<path d="M10 4.58923V5.93519C10 7.72981 9.1 8.62712 7.3 8.62712H7.075C6.9355 8.62712 6.8005 8.69442 6.715 8.80658L6.04 9.70389C5.743 10.0987 5.257 10.0987 4.96 9.70389L4.285 8.80658C4.213 8.70788 4.0465 8.62712 3.925 8.62712H3.7C1.9 8.62712 1 8.17846 1 5.93519V3.69192C1 1.89731 1.9 1 3.7 1H6.4" stroke="#888888" stroke-miterlimit="10" stroke-linecap="round" stroke-linejoin="round"/>
<path d="M8.875 3.24327C9.17337 3.24327 9.45952 3.1251 9.6705 2.91475C9.88147 2.7044 10 2.41911 10 2.12164C10 1.82416 9.88147 1.53887 9.6705 1.32852C9.45952 1.11817 9.17337 1 8.875 1C8.57663 1 8.29048 1.11817 8.0795 1.32852C7.86853 1.53887 7.75 1.82416 7.75 2.12164C7.75 2.41911 7.86853 2.7044 8.0795 2.91475C8.29048 3.1251 8.57663 3.24327 8.875 3.24327V3.24327Z" stroke="#888888" stroke-linecap="round" stroke-linejoin="round"/>
<path d="M7.2982 5.03809H7.3027M5.49775 5.03809H5.50225M3.69775 5.03809H3.70135" stroke="#888888" stroke-linecap="round" stroke-linejoin="round"/>
</svg>
