<svg width="20" height="18" viewBox="0 0 20 18" fill="none" xmlns="http://www.w3.org/2000/svg">
<path d="M19.1912 5.66395C19.1912 2.81408 16.9694 0.490967 14.2411 0.490967C12.2421 0.490967 10.5133 1.74032 9.73665 3.52993C8.96003 1.74032 7.23119 0.490967 5.23223 0.490967C2.50392 0.490967 0.282104 2.80733 0.282104 5.66395C0.282104 6.26499 0.383403 6.83902 0.565741 7.37928C0.775092 7.99383 1.08574 8.54759 1.48418 9.03382C1.65301 9.24318 1.83535 9.43227 2.03795 9.60785L9.58808 17.4416C9.63535 17.4889 9.69613 17.5159 9.75691 17.5159C9.81769 17.5159 9.87847 17.4889 9.92574 17.4416L17.7528 9.31746C18.2592 8.78395 18.6577 8.1424 18.9076 7.4198C19.0966 6.87279 19.1979 6.28525 19.1979 5.66395H19.1912Z" fill="#004537"/>
</svg>
