<svg width="17" height="17" viewBox="0 0 17 17" fill="none" xmlns="http://www.w3.org/2000/svg">
<circle cx="8.5" cy="8.5" r="8.5" fill="#D9D9D9"/>
<path d="M8.71191 11.1973H7.44043C7.44499 10.7598 7.48372 10.402 7.55664 10.124C7.63411 9.84147 7.75944 9.58398 7.93262 9.35156C8.10579 9.11914 8.33594 8.85482 8.62305 8.55859C8.83268 8.3444 9.02409 8.14388 9.19727 7.95703C9.375 7.76562 9.51855 7.56055 9.62793 7.3418C9.7373 7.11849 9.79199 6.85189 9.79199 6.54199C9.79199 6.22754 9.73503 5.95638 9.62109 5.72852C9.51172 5.50065 9.34766 5.3252 9.12891 5.20215C8.91471 5.0791 8.64811 5.01758 8.3291 5.01758C8.06478 5.01758 7.81413 5.06543 7.57715 5.16113C7.34017 5.25684 7.14876 5.40495 7.00293 5.60547C6.8571 5.80143 6.7819 6.05892 6.77734 6.37793H5.5127C5.52181 5.86296 5.64941 5.4209 5.89551 5.05176C6.14616 4.68262 6.4834 4.40007 6.90723 4.2041C7.33105 4.00814 7.80501 3.91016 8.3291 3.91016C8.90788 3.91016 9.40007 4.01497 9.80566 4.22461C10.2158 4.43424 10.528 4.73503 10.7422 5.12695C10.9564 5.51432 11.0635 5.97461 11.0635 6.50781C11.0635 6.91797 10.9792 7.29622 10.8105 7.64258C10.6465 7.98438 10.4346 8.30566 10.1748 8.60645C9.91504 8.90723 9.63932 9.19434 9.34766 9.46777C9.09701 9.7002 8.92839 9.96224 8.8418 10.2539C8.75521 10.5456 8.71191 10.86 8.71191 11.1973ZM7.38574 13.3643C7.38574 13.1592 7.44954 12.986 7.57715 12.8447C7.70475 12.7035 7.88932 12.6328 8.13086 12.6328C8.37695 12.6328 8.5638 12.7035 8.69141 12.8447C8.81901 12.986 8.88281 13.1592 8.88281 13.3643C8.88281 13.5602 8.81901 13.7288 8.69141 13.8701C8.5638 14.0114 8.37695 14.082 8.13086 14.082C7.88932 14.082 7.70475 14.0114 7.57715 13.8701C7.44954 13.7288 7.38574 13.5602 7.38574 13.3643Z" fill="#333333"/>
</svg>
