<svg xmlns="http://www.w3.org/2000/svg" width="23.6" height="24.161" viewBox="0 0 23.6 24.161"><g transform="translate(-1.7 1.3)"><path d="M11.5,23.361H10.5l0-.8v-.8H11.5a1.586,1.586,0,0,0,1.526-1.238,1.483,1.483,0,0,1,.919-1.042c.2-.077.4-.163.6-.258a1.463,1.463,0,0,1,1.4.082,1.524,1.524,0,0,0,1.906-.245l.705-.722a1.676,1.676,0,0,0,.237-2.018,1.511,1.511,0,0,1-.074-1.378c.091-.2.176-.413.251-.622a1.48,1.48,0,0,1,1.035-.94A1.621,1.621,0,0,0,21.2,11.791V10.771A1.623,1.623,0,0,0,20,9.182a1.475,1.475,0,0,1-1.025-.939c-.077-.213-.161-.423-.251-.624A1.508,1.508,0,0,1,18.8,6.235a1.673,1.673,0,0,0-.242-2.011l-.7-.722A1.528,1.528,0,0,0,15.94,3.26a1.461,1.461,0,0,1-1.392.078c-.177-.084-.377-.168-.608-.257a1.486,1.486,0,0,1-.915-1.05A1.585,1.585,0,0,0,11.5.8h-1A1.588,1.588,0,0,0,8.975,2.04a1.481,1.481,0,0,1-.919,1.042c-.206.078-.41.164-.6.256a1.461,1.461,0,0,1-1.4-.083A1.53,1.53,0,0,0,4.147,3.5l-.7.721a1.676,1.676,0,0,0-.237,2.018A1.511,1.511,0,0,1,3.28,7.619c-.082.183-.164.388-.252.626a1.48,1.48,0,0,1-1.034.937A1.621,1.621,0,0,0,.8,10.771V11.79A1.623,1.623,0,0,0,2,13.382a1.475,1.475,0,0,1,1.024.934c.077.214.161.424.251.623l0,.005A1.513,1.513,0,0,1,3.2,16.327a1.673,1.673,0,0,0,.242,2.011l.7.722a1.532,1.532,0,0,0,1.914.241,1.455,1.455,0,0,1,1.394-.077c.191.091.391.176.608.259a1.487,1.487,0,0,1,.915,1.044A1.586,1.586,0,0,0,10.5,21.761v1.6a3.18,3.18,0,0,1-3.069-2.406c-.211-.082-.408-.166-.6-.254A3.131,3.131,0,0,1,3,20.176l-.7-.721a3.277,3.277,0,0,1-.5-3.9c-.092-.206-.178-.42-.257-.637A3.223,3.223,0,0,1-.8,11.789V10.771A3.222,3.222,0,0,1,1.544,7.646c.088-.236.172-.446.257-.639a3.278,3.278,0,0,1,.5-3.9l.7-.72a3.129,3.129,0,0,1,3.837-.525c.194-.09.395-.174.6-.253A3.181,3.181,0,0,1,10.5-.8H11.5a3.181,3.181,0,0,1,3.072,2.409c.219.086.415.168.6.251A3.128,3.128,0,0,1,19,2.385l.7.721a3.277,3.277,0,0,1,.5,3.9c.092.208.179.423.258.64A3.223,3.223,0,0,1,22.8,10.771V11.79a3.222,3.222,0,0,1-2.343,3.125c-.078.215-.165.429-.258.639a3.279,3.279,0,0,1-.5,3.9l-.7.72a3.123,3.123,0,0,1-3.837.525c-.2.091-.4.177-.6.255A3.179,3.179,0,0,1,11.5,23.361Z" transform="translate(2.5 -0.5)"/><path d="M4.7,1.6A3.1,3.1,0,1,0,7.8,4.7,3.1,3.1,0,0,0,4.7,1.6M4.7,0A4.7,4.7,0,1,1,0,4.7,4.7,4.7,0,0,1,4.7,0Z" transform="translate(8.8 6)"/></g></svg>