<svg width="20" height="20" viewBox="0 0 20 20" fill="none" xmlns="http://www.w3.org/2000/svg">
<path d="M20 5V20H0L6.55671e-07 5H1.66667L1.66667 11.6667H6.66667C6.66667 13.5076 8.15905 15 10 15C11.8409 15 13.3333 13.5076 13.3333 11.6667H18.3333V13.3333H14.7155C14.0291 15.2753 12.177 16.6667 10 16.6667C7.82297 16.6667 5.9709 15.2753 5.28451 13.3333H1.66667L1.66667 18.3333L18.3333 18.3333V5H20Z" fill="black"/>
<path d="M11.6667 5V1.45704e-07L8.33333 0V5L5 5L10 11.6667L15 5L11.6667 5Z" fill="black"/>
</svg>
