<svg xmlns="http://www.w3.org/2000/svg" width="19.559" height="19.559" viewBox="0 0 19.559 19.559"><g transform="translate(-319.939 -252.939)"><g transform="translate(319.5 252.5)"><path d="M14.927,17.049a7.982,7.982,0,0,1-4.708,1.633c-5.548,0-8.719-6.341-8.719-6.341A14.624,14.624,0,0,1,5.511,7.633M8.554,6.19A7.229,7.229,0,0,1,10.219,6c5.548,0,8.719,6.341,8.719,6.341a14.663,14.663,0,0,1-1.712,2.528M11.9,14.021a2.378,2.378,0,1,1-3.361-3.361" transform="translate(0 -2.122)" fill="none" stroke="#bcbcbc" stroke-linecap="round" stroke-linejoin="round" stroke-width="1.5"/><path d="M1.5,1.5,18.938,18.938" transform="translate(0 0)" fill="none" stroke="#bcbcbc" stroke-linecap="round" stroke-linejoin="round" stroke-width="1.5"/></g></g></svg>