<svg width="14" height="10" viewBox="0 0 14 10" fill="none" xmlns="http://www.w3.org/2000/svg">
<g clip-path="url(#clip0_12_3590)">
<path d="M7.13396 9.49979C6.17134 9.49979 5.36137 9.3752 4.57009 9.12274C3.90654 8.90963 3.2866 8.61455 2.71028 8.2375C1.98131 7.75881 1.35826 7.17848 0.847352 6.49651C0.507788 6.04405 0.227414 5.55881 0.0093458 5.04733C-0.00311526 5.0211 -0.00311526 4.98176 0.0093458 4.95881C0.34891 4.16209 0.82866 3.44405 1.44548 2.80799C2 2.2375 2.63863 1.76209 3.35826 1.38832C4.04984 1.02766 4.78505 0.775201 5.56075 0.634218C6.23988 0.506349 6.92523 0.470283 7.61682 0.522742C8.51713 0.591595 9.37695 0.804709 10.1931 1.16864C10.8879 1.47684 11.5171 1.87356 12.0841 2.36209C12.7009 2.89323 13.2118 3.50307 13.6075 4.19487C13.7508 4.44405 13.866 4.70307 13.9938 4.95881C14.0062 4.98176 14.0031 5.01455 13.9938 5.0375C13.6791 5.77848 13.243 6.45061 12.6885 7.05061C12.1371 7.64733 11.5016 8.14569 10.7757 8.54241C10.1526 8.8834 9.49221 9.13258 8.79439 9.29323C8.20872 9.42766 7.61371 9.49323 7.13707 9.49651L7.13396 9.49979Z" fill="#C9C9C9"/>
<path d="M7.00002 8.2672C8.71537 8.2672 10.1059 6.80368 10.1059 4.99834C10.1059 3.19301 8.71537 1.72949 7.00002 1.72949C5.28467 1.72949 3.8941 3.19301 3.8941 4.99834C3.8941 6.80368 5.28467 8.2672 7.00002 8.2672Z" fill="white"/>
<path d="M7.00002 6.96882C8.03405 6.96882 8.8723 6.0866 8.8723 4.99832C8.8723 3.91005 8.03405 3.02783 7.00002 3.02783C5.96599 3.02783 5.12775 3.91005 5.12775 4.99832C5.12775 6.0866 5.96599 6.96882 7.00002 6.96882Z" fill="#C9C9C9"/>
</g>
<defs>
<clipPath id="clip0_12_3590">
<rect width="14" height="9" fill="white" transform="translate(0 0.5)"/>
</clipPath>
</defs>
</svg>
