<svg width="13" height="8" viewBox="0 0 13 8" fill="none" xmlns="http://www.w3.org/2000/svg">
<g clip-path="url(#clip0_12_3577)">
<path d="M12.8242 4.15948L11.842 2.00284C11.7413 1.78199 11.5293 1.64122 11.2965 1.64122H8.63133L8.60405 1.63912V0.693627C8.60405 0.449434 8.41603 0.251465 8.1841 0.251465H0.634651C0.402722 0.251465 0.214695 0.449434 0.214695 0.693627V1.46496C0.214695 1.46496 0.178775 4.05023 0.214695 4.08781V6.03389C0.214695 6.27808 0.402722 6.47605 0.634651 6.47605H1.44818C1.44818 7.22614 2.02578 7.83428 2.7382 7.83428C3.45062 7.83428 4.02822 7.22614 4.02822 6.47605H9.29474C9.29474 7.22614 9.87235 7.83428 10.5848 7.83428C11.2972 7.83428 11.8748 7.22614 11.8748 6.47605C11.8748 6.4471 11.8737 6.41838 11.8719 6.39014H12.279C12.6131 6.39014 12.8839 6.10509 12.8839 5.75327V4.43473C12.8839 4.33948 12.8635 4.2454 12.8245 4.15925L12.8242 4.15948Z" fill="#D7B15E"/>
<path d="M12.9251 4.08801L11.9428 1.93136C11.8169 1.65472 11.547 1.4759 11.2557 1.4759H8.72042V0.607681C8.72042 0.272674 8.46144 0 8.14326 0H0.594031C0.275627 0 0.0168689 0.272674 0.0168689 0.607681V1.37785C0.0164255 1.40936 0.00777802 2.04412 0.00334343 2.67515C-0.002865 3.56788 -0.00153462 3.88281 0.0168689 4.01191V5.94817C0.0168689 6.28318 0.275849 6.55585 0.594031 6.55585H1.25235C1.29181 7.35917 1.92485 8 2.69758 8C3.47031 8 4.10334 7.35917 4.14281 6.55585H9.09891C9.13838 7.35917 9.77142 8 10.5441 8C11.3169 8 11.9499 7.35917 11.9894 6.55585H12.2384C12.6586 6.55585 13.0005 6.19587 13.0005 5.75347V4.43493C13.0005 4.31563 12.9745 4.19563 12.9255 4.08801H12.9251ZM2.69736 7.66896C2.07274 7.66896 1.56454 7.13389 1.56454 6.47625C1.56454 5.81861 2.07274 5.28353 2.69736 5.28353C3.32197 5.28353 3.83017 5.81861 3.83017 6.47625C3.83017 7.13389 3.32197 7.66896 2.69736 7.66896ZM8.00068 6.22482H4.12463C4.01044 5.50391 3.41421 4.95249 2.69758 4.95249C1.98095 4.95249 1.38472 5.50391 1.27053 6.22482H0.594031C0.44902 6.22482 0.33106 6.10062 0.33106 5.94794V3.93347L0.322412 3.92436C0.306891 3.64515 0.318865 2.25026 0.33106 1.38135V0.607681C0.33106 0.455002 0.44902 0.330804 0.594031 0.330804H8.14348C8.28849 0.330804 8.40645 0.455002 8.40645 0.607681V5.94817C8.40645 6.10085 8.28849 6.22505 8.14348 6.22505H8.00068V6.22482ZM10.5439 7.66896C9.91931 7.66896 9.4111 7.13389 9.4111 6.47625C9.4111 5.81861 9.91931 5.28353 10.5439 5.28353C11.1685 5.28353 11.6767 5.81861 11.6767 6.47625C11.6767 7.13389 11.1685 7.66896 10.5439 7.66896ZM12.6858 5.75324C12.6858 6.01331 12.4849 6.22458 12.2382 6.22458H11.9712C11.857 5.50368 11.2608 4.95226 10.5441 4.95226C9.82751 4.95226 9.23128 5.50368 9.11709 6.22458H8.65745C8.69802 6.14147 8.72108 6.04739 8.72108 5.94771V1.8067H11.2563C11.4275 1.8067 11.586 1.91175 11.6601 2.07424L12.6424 4.23089C12.6712 4.29415 12.6863 4.36466 12.6863 4.43469V5.75324H12.6858Z" fill="white"/>
<path d="M11.2287 2.57798C11.2058 2.51798 11.1506 2.47876 11.0894 2.47876H9.28964C9.20671 2.47876 9.13953 2.5495 9.13953 2.63681V3.79334C9.13953 3.88065 9.20671 3.95139 9.28964 3.95139H11.5287C11.6349 3.95139 11.7074 3.83863 11.6679 3.73474L11.2284 2.57821L11.2287 2.57798Z" fill="white"/>
</g>
<defs>
<clipPath id="clip0_12_3577">
<rect width="13" height="8" fill="white"/>
</clipPath>
</defs>
</svg>
