<svg width="20" height="18" viewBox="0 0 20 18" fill="none" xmlns="http://www.w3.org/2000/svg">
<path d="M18.8411 5.66395V5.9317C18.8165 6.41542 18.7257 6.87435 18.5767 7.30542C18.3437 7.97914 17.9723 8.57749 17.4997 9.07556C17.4994 9.07587 17.4991 9.07618 17.4988 9.07648L9.75677 17.1124L2.28983 9.36497L2.27893 9.35365L2.26705 9.34336C2.08027 9.18148 1.91238 9.00739 1.7565 8.81411L1.75651 8.8141L1.75478 8.81199C1.38285 8.35811 1.09284 7.84137 0.897077 7.26687C0.726427 6.76108 0.631982 6.22496 0.631982 5.66395C0.631982 2.98619 2.71123 0.840967 5.23211 0.840967C7.07961 0.840967 8.68939 1.99614 9.41546 3.66926L9.73653 4.40912L10.0576 3.66926C10.7837 1.99614 12.3934 0.840967 14.2409 0.840967C16.7615 0.840967 18.8411 2.99264 18.8411 5.66395Z" stroke="#004537" stroke-width="0.7"/>
</svg>
