<svg width="26" height="26" viewBox="0 0 26 26" fill="none" xmlns="http://www.w3.org/2000/svg">
<path d="M4.33341 4.33329H7.58341L9.75008 2.16663H16.2501L18.4167 4.33329H21.6667C22.2414 4.33329 22.7925 4.56157 23.1988 4.96789C23.6051 5.37422 23.8334 5.92532 23.8334 6.49996V19.5C23.8334 20.0746 23.6051 20.6257 23.1988 21.032C22.7925 21.4384 22.2414 21.6666 21.6667 21.6666H4.33341C3.75878 21.6666 3.20768 21.4384 2.80135 21.032C2.39502 20.6257 2.16675 20.0746 2.16675 19.5V6.49996C2.16675 5.92532 2.39502 5.37422 2.80135 4.96789C3.20768 4.56157 3.75878 4.33329 4.33341 4.33329ZM13.0001 7.58329C11.5635 7.58329 10.1857 8.15398 9.16992 9.1698C8.1541 10.1856 7.58341 11.5634 7.58341 13C7.58341 14.4365 8.1541 15.8143 9.16992 16.8301C10.1857 17.8459 11.5635 18.4166 13.0001 18.4166C14.4367 18.4166 15.8144 17.8459 16.8302 16.8301C17.8461 15.8143 18.4167 14.4365 18.4167 13C18.4167 11.5634 17.8461 10.1856 16.8302 9.1698C15.8144 8.15398 14.4367 7.58329 13.0001 7.58329ZM13.0001 9.74996C13.862 9.74996 14.6887 10.0924 15.2982 10.7019C15.9077 11.3114 16.2501 12.138 16.2501 13C16.2501 13.8619 15.9077 14.6886 15.2982 15.2981C14.6887 15.9076 13.862 16.25 13.0001 16.25C12.1381 16.25 11.3115 15.9076 10.702 15.2981C10.0925 14.6886 9.75008 13.8619 9.75008 13C9.75008 12.138 10.0925 11.3114 10.702 10.7019C11.3115 10.0924 12.1381 9.74996 13.0001 9.74996Z" fill="#777777"/>
</svg>
