<svg width="20" height="21" viewBox="0 0 20 21" fill="none" xmlns="http://www.w3.org/2000/svg">
<path d="M2.01326 19.3879L2.01326 19.3878H2C1.67015 19.3878 1.35275 19.2559 1.11793 19.0195C0.882938 18.7828 0.75 18.4608 0.75 18.124V8.76103L10 0.777855L19.25 8.76103V18.124C19.25 18.4608 19.1171 18.7829 18.8821 19.0195C18.6472 19.2559 18.3299 19.3878 18 19.3878V19.3877L17.9867 19.3879L13.4773 19.4676V14.188C13.4773 13.4566 13.1888 12.7542 12.6736 12.2355C12.5023 12.063 12.2785 11.9228 12.0779 11.8151C11.8659 11.7014 11.6283 11.597 11.393 11.5085C10.9512 11.3424 10.4053 11.1902 10 11.1902C9.59466 11.1902 9.04883 11.3424 8.60702 11.5085C8.37168 11.597 8.13411 11.7014 7.92211 11.8151C7.72148 11.9228 7.49768 12.063 7.32637 12.2355C6.81122 12.7542 6.52273 13.4566 6.52273 14.188V19.4676L2.01326 19.3879Z" stroke="black" stroke-opacity="0.35" stroke-width="1.5"/>
</svg>
