<svg width="42" height="29" viewBox="0 0 42 29" fill="none" xmlns="http://www.w3.org/2000/svg">
<path d="M40.4944 4.54123C40.2569 3.66349 39.7936 2.86327 39.1506 2.22028C38.5076 1.57728 37.7075 1.11393 36.8297 0.876381C33.6163 0 20.6835 0 20.6835 0C20.6835 0 7.74997 0.0265275 4.53657 0.902909C3.65882 1.14048 2.85861 1.60385 2.21564 2.24687C1.57267 2.8899 1.10937 3.69015 0.871883 4.56792C-0.100094 10.2775 -0.477142 18.9776 0.898573 24.4588C1.13609 25.3365 1.5994 26.1367 2.24236 26.7797C2.88533 27.4227 3.68553 27.8861 4.56326 28.1236C7.77666 29 20.7098 29 20.7098 29C20.7098 29 33.6428 29 36.8561 28.1236C37.7338 27.8861 38.5341 27.4228 39.1771 26.7798C39.8201 26.1368 40.2834 25.3365 40.5209 24.4588C41.5461 18.7411 41.862 10.0464 40.4944 4.54123Z" fill="#FF0000"/>
<path d="M16.5671 20.714L27.2959 14.4997L16.5671 8.28545V20.714Z" fill="white"/>
</svg>
