<svg width="24" height="24" viewBox="0 0 24 24" fill="none" xmlns="http://www.w3.org/2000/svg">
<g clip-path="url(#clip0_12_3532)">
<mask id="path-1-inside-1_12_3532" fill="white">
<path d="M5.91724 18.5321V9.83527C5.91724 6.10285 8.86235 3.08484 12.5 3.08484C16.1376 3.08484 19.0828 6.11014 19.0828 9.83527V18.5321"/>
</mask>
<path d="M6.62724 18.5321V9.83527H5.20724V18.5321H6.62724ZM6.62724 9.83527C6.62724 6.47818 9.27106 3.79484 12.5 3.79484V2.37484C8.45364 2.37484 5.20724 5.72752 5.20724 9.83527H6.62724ZM12.5 3.79484C15.7284 3.79484 18.3728 6.48496 18.3728 9.83527H19.7928C19.7928 5.73531 16.5468 2.37484 12.5 2.37484V3.79484ZM18.3728 9.83527V18.5321H19.7928V9.83527H18.3728Z" fill="#004537" mask="url(#path-1-inside-1_12_3532)"/>
<path d="M4 18.3718H21" stroke="#004537" stroke-width="0.71" stroke-miterlimit="10"/>
<mask id="path-4-inside-2_12_3532" fill="white">
<path d="M16.0938 19.3778C16.0938 21.3607 14.4828 22.9717 12.4999 22.9717C10.5171 22.9717 8.90601 21.3607 8.90601 19.3778"/>
</mask>
<path d="M15.3838 19.3778C15.3838 20.9685 14.0906 22.2617 12.4999 22.2617V23.6817C14.8749 23.6817 16.8038 21.7528 16.8038 19.3778H15.3838ZM12.4999 22.2617C10.9092 22.2617 9.61601 20.9685 9.61601 19.3778H8.19601C8.19601 21.7528 10.1249 23.6817 12.4999 23.6817V22.2617Z" fill="#004537" mask="url(#path-4-inside-2_12_3532)"/>
<path d="M12.5 1V3.1578" stroke="#004537" stroke-width="0.71" stroke-miterlimit="10"/>
</g>
<defs>
<clipPath id="clip0_12_3532">
<rect width="24" height="24" fill="white"/>
</clipPath>
</defs>
</svg>
