<svg width="16" height="10" viewBox="0 0 16 10" fill="none" xmlns="http://www.w3.org/2000/svg">
<path d="M4.18182 8.00022H3.70455H4.18182ZM10.5455 8.00022L11.0227 8.00022L10.5455 8.00022ZM6.75909 7.52273C6.4955 7.52273 6.28182 7.73641 6.28182 8C6.28182 8.26359 6.4955 8.47727 6.75909 8.47727V7.52273ZM9.90909 1.38182L10.3864 1.38182L9.90909 1.38182ZM1 0.522727C0.73641 0.522727 0.522727 0.73641 0.522727 1C0.522727 1.26359 0.73641 1.47727 1 1.47727V0.522727ZM3.95909 8.47727C4.22268 8.47727 4.43636 8.26359 4.43636 8C4.43636 7.73641 4.22268 7.52273 3.95909 7.52273V8.47727ZM2.75 4.5C2.75 4.23641 2.53632 4.02273 2.27273 4.02273C2.00914 4.02273 1.79545 4.23641 1.79545 4.5H2.75ZM1.63636 2.43204C1.37277 2.43204 1.15909 2.64572 1.15909 2.90931C1.15909 3.1729 1.37277 3.38659 1.63636 3.38659V2.43204ZM4.18182 3.38659C4.44541 3.38659 4.65909 3.1729 4.65909 2.90931C4.65909 2.64572 4.44541 2.43204 4.18182 2.43204V3.38659ZM9.90909 2.43204C9.6455 2.43204 9.43182 2.64572 9.43182 2.90931C9.43182 3.1729 9.6455 3.38659 9.90909 3.38659V2.43204ZM13.4791 2.90931L13.4792 2.43204H13.4791V2.90931ZM13.8278 3.13586L14.264 2.94204L14.2638 2.94177L13.8278 3.13586ZM14.9669 5.69913L14.5308 5.89295L14.531 5.89349L14.9669 5.69913ZM15 5.85377L15.4773 5.85377L15.4773 5.85271L15 5.85377ZM15 7.6184H15.4773H15ZM14.6182 8.00022L14.6182 8.47749L14.6182 8.00022ZM13.4091 7.52295C13.1455 7.52295 12.9318 7.73663 12.9318 8.00022C12.9318 8.26381 13.1455 8.47749 13.4091 8.47749V7.52295ZM5.45455 9.75022C5.91867 9.75022 6.36379 9.56585 6.69198 9.23766L6.01702 8.56269C5.86784 8.71187 5.66551 8.79568 5.45455 8.79568V9.75022ZM6.69198 9.23766C7.02017 8.90947 7.20455 8.46435 7.20455 8.00022H6.25C6.25 8.21119 6.16619 8.41352 6.01702 8.56269L6.69198 9.23766ZM7.20455 8.00022C7.20455 7.53609 7.02017 7.09097 6.69198 6.76279L6.01702 7.43775C6.16619 7.58693 6.25 7.78926 6.25 8.00022H7.20455ZM6.69198 6.76279C6.36379 6.4346 5.91867 6.25022 5.45455 6.25022V7.20477C5.66551 7.20477 5.86784 7.28857 6.01702 7.43775L6.69198 6.76279ZM5.45455 6.25022C4.99042 6.25022 4.5453 6.4346 4.21711 6.76279L4.89207 7.43775C5.04125 7.28857 5.24358 7.20477 5.45455 7.20477V6.25022ZM4.21711 6.76279C3.88892 7.09097 3.70455 7.53609 3.70455 8.00022L4.65909 8.00022C4.65909 7.78925 4.7429 7.58693 4.89207 7.43775L4.21711 6.76279ZM3.70455 8.00022C3.70455 8.46435 3.88892 8.90947 4.21711 9.23766L4.89207 8.56269C4.7429 8.41352 4.65909 8.21119 4.65909 8.00022H3.70455ZM4.21711 9.23766C4.5453 9.56585 4.99042 9.75022 5.45455 9.75022V8.79568C5.24358 8.79568 5.04125 8.71187 4.89207 8.56269L4.21711 9.23766ZM11.8182 9.75022C12.2823 9.75022 12.7274 9.56585 13.0556 9.23766L12.3807 8.56269C12.2315 8.71187 12.0291 8.79568 11.8182 8.79568V9.75022ZM13.0556 9.23766C13.3838 8.90947 13.5682 8.46435 13.5682 8.00022H12.6136C12.6136 8.21119 12.5298 8.41352 12.3807 8.56269L13.0556 9.23766ZM13.5682 8.00022C13.5682 7.53609 13.3838 7.09097 13.0556 6.76279L12.3807 7.43775C12.5298 7.58693 12.6136 7.78925 12.6136 8.00022H13.5682ZM13.0556 6.76279C12.7274 6.4346 12.2823 6.25022 11.8182 6.25022V7.20477C12.0291 7.20477 12.2315 7.28857 12.3807 7.43775L13.0556 6.76279ZM11.8182 6.25022C11.3541 6.25022 10.9089 6.4346 10.5807 6.76279L11.2557 7.43775C11.4049 7.28857 11.6072 7.20477 11.8182 7.20477V6.25022ZM10.5807 6.76279C10.2526 7.09097 10.0682 7.53609 10.0682 8.00022L11.0227 8.00022C11.0227 7.78926 11.1065 7.58693 11.2557 7.43775L10.5807 6.76279ZM10.0682 8.00022C10.0682 8.46435 10.2526 8.90947 10.5807 9.23766L11.2557 8.56269C11.1065 8.41352 11.0227 8.21119 11.0227 8.00022L10.0682 8.00022ZM10.5807 9.23766C10.9089 9.56585 11.3541 9.75022 11.8182 9.75022V8.79568C11.6072 8.79568 11.4049 8.71187 11.2557 8.56269L10.5807 9.23766ZM6.75909 8.47727H9.90909V7.52273H6.75909V8.47727ZM10.3864 8V1.38182H9.43182V8H10.3864ZM10.3864 1.38182C10.3864 1.15397 10.2959 0.935461 10.1347 0.774349L9.45978 1.44931C9.44187 1.43141 9.43182 1.40713 9.43182 1.38182L10.3864 1.38182ZM10.1347 0.774349C9.97363 0.613238 9.75512 0.522727 9.52727 0.522727V1.47727C9.50196 1.47727 9.47768 1.46722 9.45978 1.44931L10.1347 0.774349ZM9.52727 0.522727H1V1.47727H9.52727V0.522727ZM3.95909 7.52273H2.65455V8.47727H3.95909V7.52273ZM2.65455 7.52273C2.66708 7.52273 2.67949 7.5252 2.69107 7.52999L2.32579 8.41188C2.43002 8.45505 2.54173 8.47727 2.65455 8.47727V7.52273ZM2.69107 7.52999C2.70266 7.53479 2.71318 7.54182 2.72204 7.55069L2.04708 8.22565C2.12685 8.30542 2.22155 8.3687 2.32579 8.41188L2.69107 7.52999ZM2.72204 7.55069C2.73091 7.55955 2.73794 7.57007 2.74273 7.58165L1.86085 7.94694C1.90402 8.05117 1.9673 8.14588 2.04708 8.22565L2.72204 7.55069ZM2.74273 7.58165C2.74753 7.59323 2.75 7.60565 2.75 7.61818H1.79545C1.79545 7.731 1.81768 7.84271 1.86085 7.94694L2.74273 7.58165ZM2.75 7.61818V4.5H1.79545V7.61818H2.75ZM1.63636 3.38659H4.18182V2.43204H1.63636V3.38659ZM9.90909 3.38659H13.4791V2.43204H9.90909V3.38659ZM13.479 3.38659C13.4605 3.38658 13.4425 3.38123 13.427 3.37118L13.947 2.57071C13.8078 2.48025 13.6453 2.43208 13.4792 2.43204L13.479 3.38659ZM13.427 3.37118C13.4115 3.36113 13.3993 3.34681 13.3918 3.32995L14.2638 2.94177C14.1963 2.79006 14.0863 2.66117 13.947 2.57071L13.427 3.37118ZM13.3917 3.32968L14.5308 5.89295L15.4031 5.50531L14.264 2.94204L13.3917 3.32968ZM14.531 5.89349C14.5256 5.88132 14.5228 5.86815 14.5227 5.85483L15.4773 5.85271C15.477 5.73281 15.4516 5.61429 15.4028 5.50478L14.531 5.89349ZM14.5227 5.85377V7.6184H15.4773V5.85377H14.5227ZM14.5227 7.6184C14.5227 7.60587 14.5252 7.59346 14.53 7.58187L15.4119 7.94716C15.4551 7.84293 15.4773 7.73121 15.4773 7.6184L14.5227 7.6184ZM14.53 7.58187C14.5348 7.57029 14.5418 7.55977 14.5507 7.55091L15.2257 8.22587C15.3054 8.1461 15.3687 8.0514 15.4119 7.94716L14.53 7.58187ZM14.5507 7.55091C14.5595 7.54204 14.5701 7.53501 14.5817 7.53022L14.9469 8.4121C15.0512 8.36893 15.1459 8.30565 15.2257 8.22587L14.5507 7.55091ZM14.5817 7.53022C14.5932 7.52542 14.6056 7.52295 14.6182 7.52295L14.6182 8.47749C14.731 8.47749 14.8427 8.45528 14.9469 8.4121L14.5817 7.53022ZM14.6182 7.52295H13.4091V8.47749H14.6182V7.52295ZM9.90892 8.47727L10.5453 8.47749L10.5456 7.52295L9.90926 7.52273L9.90892 8.47727Z" fill="black"/>
</svg>
