<svg width="16" height="16" viewBox="0 0 16 16" fill="none" xmlns="http://www.w3.org/2000/svg">
<circle cx="8" cy="8" r="8" fill="black"/>
<path d="M11.1501 4.85499C11.1039 4.80864 11.0489 4.77186 10.9884 4.74677C10.9279 4.72168 10.8631 4.70877 10.7976 4.70877C10.7321 4.70877 10.6673 4.72168 10.6068 4.74677C10.5463 4.77186 10.4914 4.80864 10.4451 4.85499L8.00011 7.29499L5.55511 4.84999C5.50882 4.8037 5.45387 4.76698 5.39338 4.74193C5.3329 4.71687 5.26808 4.70398 5.20261 4.70398C5.13715 4.70398 5.07232 4.71687 5.01184 4.74193C4.95136 4.76698 4.8964 4.8037 4.85011 4.84999C4.80382 4.89628 4.7671 4.95124 4.74205 5.01172C4.717 5.0722 4.7041 5.13702 4.7041 5.20249C4.7041 5.26796 4.717 5.33278 4.74205 5.39326C4.7671 5.45374 4.80382 5.5087 4.85011 5.55499L7.29511 7.99999L4.85011 10.445C4.80382 10.4913 4.7671 10.5462 4.74205 10.6067C4.717 10.6672 4.7041 10.732 4.7041 10.7975C4.7041 10.863 4.717 10.9278 4.74205 10.9883C4.7671 11.0487 4.80382 11.1037 4.85011 11.15C4.8964 11.1963 4.95136 11.233 5.01184 11.2581C5.07232 11.2831 5.13715 11.296 5.20261 11.296C5.26808 11.296 5.3329 11.2831 5.39338 11.2581C5.45387 11.233 5.50882 11.1963 5.55511 11.15L8.00011 8.70499L10.4451 11.15C10.4914 11.1963 10.5464 11.233 10.6068 11.2581C10.6673 11.2831 10.7321 11.296 10.7976 11.296C10.8631 11.296 10.9279 11.2831 10.9884 11.2581C11.0489 11.233 11.1038 11.1963 11.1501 11.15C11.1964 11.1037 11.2331 11.0487 11.2582 10.9883C11.2832 10.9278 11.2961 10.863 11.2961 10.7975C11.2961 10.732 11.2832 10.6672 11.2582 10.6067C11.2331 10.5462 11.1964 10.4913 11.1501 10.445L8.70511 7.99999L11.1501 5.55499C11.3401 5.36499 11.3401 5.04499 11.1501 4.85499Z" fill="white"/>
</svg>
