<svg xmlns="http://www.w3.org/2000/svg" width="17.381" height="17.382" viewBox="0 0 17.381 17.382"><g transform="translate(-0.257 0.001)" fill="#fff"><path d="M 1.318341016769409 16.6738395690918 L 0.9646506905555725 16.32044982910156 L 8.241150856018066 9.043950080871582 L 8.594710350036621 8.690400123596191 L 8.241150856018066 8.336850166320801 L 0.964350700378418 1.060050010681152 L 1.317750692367554 0.7063500285148621 L 8.594700813293457 7.98330020904541 L 8.948250770568848 8.336859703063965 L 9.301800727844238 7.98330020904541 L 16.57800102233887 0.707099974155426 L 16.93111038208008 1.06020975112915 L 9.65510082244873 8.336620330810547 L 9.301560401916504 8.690170288085938 L 9.655110359191895 9.043709754943848 L 16.93125152587891 16.31984901428223 L 16.57785034179688 16.67354965209961 L 9.301590919494629 9.397290229797363 L 8.948030471801758 9.043720245361328 L 8.594480514526367 9.397299766540527 L 1.318341016769409 16.6738395690918 Z" stroke="none"/><path d="M 16.57800102233887 17.38080024719238 L 8.948040962219238 9.750840187072754 L 1.318500638008118 17.38080024719238 L 0.2574006319046021 16.32060050964355 L 7.887600421905518 8.690400123596191 L 0.2574006319046021 1.060199975967407 L 1.317600607872009 -0.0009000106947496533 L 8.948250770568848 7.629749774932861 L 16.57800102233887 -1.068115373925593e-08 L 17.6382007598877 1.060199975967407 L 10.00866031646729 8.690159797668457 L 17.6382007598877 16.31970024108887 L 16.57800102233887 17.38080024719238 Z" stroke="none" fill="#777"/></g></svg>