<svg width="114" height="109" viewBox="0 0 114 109" fill="none" xmlns="http://www.w3.org/2000/svg">
<path d="M12.1709 105.049C8.57212 102.408 5.8054 98.6864 3.87078 93.8831C1.93616 89.0797 0.979248 83.5694 0.979248 77.3729C0.979248 71.1764 2.22739 65.7285 4.74448 60.4885C7.26157 55.2694 10.8396 51.0483 15.4785 47.8668C20.1174 44.6854 25.5469 43.1051 31.746 43.1051C34.5959 43.1051 36.8842 43.4378 38.5899 44.1032C40.2957 44.7686 41.7727 45.538 42.9793 46.4321C44.1858 47.3262 44.9763 47.7421 45.3091 47.7421C45.8916 47.7421 46.1828 46.536 46.1828 44.1032V42.211C46.1828 38.5305 45.2259 36.2224 43.2913 35.3075C41.5439 34.3926 40.3165 33.6232 39.6509 32.9786C38.9852 32.3548 38.6524 31.3775 38.6524 30.0259C38.6524 28.4456 39.1308 27.1564 40.0877 26.1999C41.0446 25.2434 42.5008 24.2453 44.4146 23.2472C47.3478 21.9164 50.7177 20.8352 54.5246 20.045C58.3314 19.2549 61.9926 18.8598 65.5082 18.8598C68.1085 18.8598 70.0431 19.3172 71.3537 20.2322C72.6434 21.1471 73.3091 22.8314 73.3091 25.2642V84.1309C73.3091 88.4767 74.266 91.0343 76.2006 91.7829C77.7816 92.5315 78.9674 93.2592 79.7162 93.9246C80.4651 94.59 80.8396 95.6505 80.8396 97.0645C80.8396 98.7488 80.3403 100.059 79.3418 101.015C78.3433 101.972 76.8663 102.928 74.9525 103.843C72.1026 105.174 68.7742 106.255 64.9674 107.045C61.1605 107.836 57.4993 108.231 53.9837 108.231C51.3002 108.231 49.3448 107.773 48.0758 106.858C46.8277 105.943 46.1828 104.259 46.1828 101.826V99.934C46.1828 97.1684 45.8916 95.7961 45.3091 95.7961C45.0595 95.7961 44.1026 97.0021 42.4176 99.4349C40.7534 101.868 38.4443 104.072 35.5112 106.027C32.5781 108.002 28.9376 108.979 24.5899 108.979C19.9094 108.979 15.7489 107.669 12.1501 105.028L12.1709 105.049ZM44.061 88.0401C45.4755 86.127 46.2036 83.4447 46.2036 80.0137V77.7472C46.2036 63.1917 43.0625 55.914 36.7801 55.914C34.6791 55.914 32.8901 56.8705 31.3715 58.8043C29.8738 60.7381 29.1041 63.6908 29.1041 67.7247C29.1041 75.1688 29.957 80.9079 31.6836 84.921C33.3894 88.9342 35.844 90.9512 39.0268 90.9512C40.9614 90.9512 42.6256 89.9947 44.061 88.0608V88.0401Z" fill="#004537"/>
<path d="M86.5602 40.9218C85.8529 40.2564 85.4993 39.4662 85.4993 38.5305C85.4993 37.9483 85.7073 37.3869 86.1234 36.8462C86.5394 36.3056 87.1635 35.8689 88.0164 35.5362C90.2006 34.7045 91.9688 33.5401 93.3626 32.0845C94.7564 30.6289 95.4428 29.1734 95.4428 27.7594C95.4428 27.0109 95.2556 26.3871 94.8812 25.8672C94.5067 25.3682 93.737 24.9523 92.5513 24.6196C87.1843 23.1017 84.5216 19.3796 84.5216 13.4534C84.5216 9.6898 85.8529 6.50838 88.5365 3.90918C91.22 1.30999 94.694 0.0207825 98.9584 0.0207825C103.223 0.0207825 106.739 1.45554 109.256 4.28347C111.773 7.13219 113.021 11.1869 113.021 16.4685C113.021 21.7501 111.731 26.1791 109.131 30.0259C106.531 33.8727 103.369 36.8254 99.6449 38.884C95.9213 40.9426 92.4265 41.9615 89.1605 41.9615C88.162 41.9615 87.2883 41.6288 86.581 40.9634L86.5602 40.9218Z" fill="#004537"/>
</svg>
