<svg width="91" height="29" viewBox="0 0 91 29" fill="none" xmlns="http://www.w3.org/2000/svg">
<path d="M78.2069 20.6589L80.2195 13.4651L75.8999 13.5216L75.2694 15.7751L63.4204 15.9302C59.7907 15.9777 59.4218 14.9463 60.3594 11.595L61.9759 5.81686C62.9135 2.46554 63.8644 1.41684 67.4941 1.36932L75.0535 1.27037C77.7232 1.23542 78.6115 1.79948 78.5408 3.44115L83.0404 3.38224L83.1374 3.03556C83.6547 1.18655 85.3013 0.2151 86.8611 0.19468C88.391 0.174653 89.5861 1.13769 89.0768 2.9578L84.1464 20.5811L78.2069 20.6589ZM80.5313 27.3065L61.603 27.5543C58.2433 27.5983 57.6586 26.4833 58.5234 23.392L59.3478 20.4452C59.8975 18.4806 61.5579 17.5665 63.2378 17.5446C64.9176 17.5226 65.9789 18.4298 65.4373 20.3655L64.8877 22.33C64.7099 22.9656 64.8356 23.0503 65.4956 23.0417L81.7842 22.8285C83.614 22.8045 84.0049 23.8644 83.6816 25.0201C83.3502 26.2046 82.3312 27.2829 80.5313 27.3065ZM66.1686 10.9145C65.9989 11.5212 66.0785 11.664 66.6784 11.6562L70.938 11.6004L72.4333 6.25566C72.5869 5.70674 72.4854 5.53536 71.8855 5.54321L68.3758 5.58915C67.7758 5.59701 67.6073 5.77192 67.4538 6.32084L66.1686 10.9145ZM77.5811 7.51237L77.0395 9.44805L81.3592 9.3915L81.9007 7.45583L77.5811 7.51237Z" fill="#2168F5"/>
<path d="M55.1379 19.8962L46.6786 20.0069L44.4639 27.923L38.3445 28.0031L40.5591 20.087L32.0999 20.1978C30.3 20.2213 29.9195 19.0173 30.2509 17.8328C30.5742 16.6772 31.6198 15.397 33.4497 15.373L50.1882 15.1539C51.6112 13.3794 52.7678 11.0615 53.7215 7.65237L53.9155 6.959C54.0287 6.55453 53.8476 6.24026 53.3677 6.24655L37.0491 6.46017C35.2492 6.48373 34.773 5.19465 35.1044 4.01013C35.4277 2.8545 36.6014 1.54382 38.4312 1.51987L56.7596 1.27994C60.2993 1.2336 61.0155 2.51954 60.2234 5.35082L59.593 7.6043C58.7604 10.58 57.5854 13.0709 56.2477 15.0746L56.4877 15.0714C58.3175 15.0475 58.6518 16.3096 58.3285 17.4653C57.9971 18.6498 56.9377 19.8726 55.1379 19.8962Z" fill="#2168F5"/>
<path d="M4.11304 22.3773C8.9843 21.7378 13.0413 19.8425 15.0296 12.7354L16.3795 7.91064C16.4926 7.50617 16.3115 7.19191 15.8316 7.19819L8.99217 7.28772C7.19232 7.31128 6.84419 5.99174 7.17558 4.80722C7.49889 3.65159 8.56064 2.31359 10.3905 2.28964L19.2097 2.17419C22.5994 2.12981 23.4909 3.64374 22.7392 6.33057L20.961 12.6865C18.0998 22.9138 11.3057 26.6872 3.43126 27.1645C1.94522 27.2415 0.769737 26.4221 1.24662 24.7176C1.58609 23.5042 2.56468 22.5703 4.11304 22.3773ZM20.2665 28.0955L27.0721 3.76957C27.5894 1.92057 29.266 0.94872 30.8259 0.928301C32.3558 0.908274 33.5208 1.87171 33.0116 3.69182L30.9667 11.0012L31.9566 10.9882C33.7865 10.9642 33.9465 12.315 33.6232 13.4707C33.2918 14.6552 32.3501 15.9916 30.5502 16.0152L29.5603 16.0281L26.206 28.0177L20.2665 28.0955Z" fill="#2168F5"/>
</svg>
