<svg width="50" height="50" viewBox="0 0 50 50" fill="none" xmlns="http://www.w3.org/2000/svg">
<circle cx="25" cy="25" r="25" fill="#EFEFEF"/>
<path d="M33.5899 35C33.5899 31.13 29.7399 28 24.9999 28C20.2599 28 16.4099 31.13 16.4099 35M24.9999 25C26.326 25 27.5978 24.4732 28.5354 23.5355C29.4731 22.5979 29.9999 21.3261 29.9999 20C29.9999 18.6739 29.4731 17.4021 28.5354 16.4645C27.5978 15.5268 26.326 15 24.9999 15C23.6738 15 22.4021 15.5268 21.4644 16.4645C20.5267 17.4021 19.9999 18.6739 19.9999 20C19.9999 21.3261 20.5267 22.5979 21.4644 23.5355C22.4021 24.4732 23.6738 25 24.9999 25V25Z" stroke="black" stroke-opacity="0.35" stroke-width="1.5" stroke-linecap="round" stroke-linejoin="round"/>
</svg>
