<svg xmlns="http://www.w3.org/2000/svg" width="49.115" height="49.115" viewBox="0 0 49.115 49.115"><g transform="translate(-0.17 -0.538)"><path d="M24.727,49.653A24.557,24.557,0,1,0,.17,25.1,24.557,24.557,0,0,0,24.727,49.653Z" fill="#c9c9c9"/><path d="M24.727,25.9A7.771,7.771,0,1,1,32.5,18.132,7.786,7.786,0,0,1,24.727,25.9Zm0-14.787a7.016,7.016,0,1,0,7.016,7.016A7.014,7.014,0,0,0,24.727,11.115Z" fill="#fff"/><path d="M39.146,39.321h-.737v-9.84H11.045v9.84h-.754V28.726H39.146Z" fill="#fff"/></g></svg>