<svg width="18" height="20" viewBox="0 0 18 20" fill="none" xmlns="http://www.w3.org/2000/svg">
<path d="M10.734 19.3695C13.3485 17.1757 18 12.6937 18 8.5807C18 6.30496 17.0518 4.12242 15.364 2.51323C13.6761 0.904035 11.3869 0 9 0C6.61305 0 4.32387 0.904035 2.63604 2.51323C0.948211 4.12242 3.55683e-08 6.30496 0 8.5807C0 12.6937 4.65 17.1757 7.266 19.3695C7.74317 19.7756 8.3604 20 9 20C9.6396 20 10.2568 19.7756 10.734 19.3695ZM6 8.5807C6 7.82212 6.31607 7.09461 6.87868 6.55821C7.44129 6.02181 8.20435 5.72047 9 5.72047C9.79565 5.72047 10.5587 6.02181 11.1213 6.55821C11.6839 7.09461 12 7.82212 12 8.5807C12 9.33928 11.6839 10.0668 11.1213 10.6032C10.5587 11.1396 9.79565 11.4409 9 11.4409C8.20435 11.4409 7.44129 11.1396 6.87868 10.6032C6.31607 10.0668 6 9.33928 6 8.5807Z" fill="#004537"/>
</svg>
